<mxfile host="app.diagrams.net" modified="2022-09-20T06:57:48.543Z" agent="5.0 (Macintosh; Intel Mac OS X 10_15_7) AppleWebKit/537.36 (KHTML, like Gecko) Chrome/105.0.0.0 Safari/537.36" etag="wPvZG0YNg4urcj1p18lk" version="20.3.2" type="github">
  <diagram id="3228e29e-7158-1315-38df-8450db1d8a1d" name="Page-1">
    <mxGraphModel dx="820" dy="370" grid="0" gridSize="10" guides="1" tooltips="1" connect="1" arrows="1" fold="1" page="1" pageScale="1" pageWidth="700" pageHeight="340" background="#EFF1F3" math="0" shadow="0">
      <root>
        <mxCell id="0" />
        <mxCell id="1" parent="0" />
        <mxCell id="LvesvwtV2vatUiFBe1HR-21535" value="" style="shape=flexArrow;endArrow=classic;startArrow=classic;html=1;rounded=0;fillColor=#FDD276;strokeColor=none;" parent="1" edge="1">
          <mxGeometry width="100" height="100" relative="1" as="geometry">
            <mxPoint x="408" y="500" as="sourcePoint" />
            <mxPoint x="510" y="500" as="targetPoint" />
          </mxGeometry>
        </mxCell>
        <mxCell id="LvesvwtV2vatUiFBe1HR-21536" value="&lt;font style=&quot;font-size: 18px;&quot; color=&quot;#4a919b&quot;&gt;TCP连接&lt;/font&gt;" style="text;html=1;strokeColor=none;fillColor=none;align=center;verticalAlign=middle;whiteSpace=wrap;rounded=0;" parent="1" vertex="1">
          <mxGeometry x="172" y="456" width="116.5" height="30" as="geometry" />
        </mxCell>
        <mxCell id="3xwDzrGGyW2AHuEpQrqx-1" value="" style="shape=image;verticalLabelPosition=bottom;labelBackgroundColor=default;verticalAlign=top;aspect=fixed;imageAspect=0;image=data:image/svg+xml,PHN2ZyB4bWxuczp4bGluaz0iaHR0cDovL3d3dy53My5vcmcvMTk5OS94bGluayIgeG1sbnM9Imh0dHA6Ly93d3cudzMub3JnLzIwMDAvc3ZnIiBoZWlnaHQ9IjIwMCIgd2lkdGg9IjIwMCIgdmVyc2lvbj0iMS4xIiB2aWV3Qm94PSIwIDAgMTAyNCAxMDI0IiBjbGFzcz0iaWNvbiI+PHBhdGggZmlsbD0iIzRBOTE5QiIgZD0iTTcwNCA5ODEuMzMzMzMzaC0zODRBMTA2Ljc5NDY2NyAxMDYuNzk0NjY3IDAgMCAxIDIxMy4zMzMzMzMgODc0LjY2NjY2N3YtNzI1LjMzMzMzNEExMDYuNzk0NjY3IDEwNi43OTQ2NjcgMCAwIDEgMzIwIDQyLjY2NjY2N2gzODRBMTA2Ljc5NDY2NyAxMDYuNzk0NjY3IDAgMCAxIDgxMC42NjY2NjcgMTQ5LjMzMzMzM3Y3MjUuMzMzMzM0YTEwNi43OTQ2NjcgMTA2Ljc5NDY2NyAwIDAgMS0xMDYuNjY2NjY3IDEwNi42NjY2NjZ6IG0tMzg0LTg5NkE2NC4wODUzMzMgNjQuMDg1MzMzIDAgMCAwIDI1NiAxNDkuMzMzMzMzdjcyNS4zMzMzMzRBNjQuMDg1MzMzIDY0LjA4NTMzMyAwIDAgMCAzMjAgOTM4LjY2NjY2N2gzODRhNjQuMDg1MzMzIDY0LjA4NTMzMyAwIDAgMCA2NC02NHYtNzI1LjMzMzMzNEE2NC4wODUzMzMgNjQuMDg1MzMzIDAgMCAwIDcwNCA4NS4zMzMzMzN6Ii8+PHBhdGggZmlsbD0iIzRBOTE5QiIgZD0iTTYwMC42MTg2NjcgMTcwLjY2NjY2N0g0MjMuMzgxMzMzQTYwLjc1NzMzMyA2MC43NTczMzMgMCAwIDEgMzYyLjY2NjY2NyAxMDkuOTUyVjY0YTIxLjMzMzMzMyAyMS4zMzMzMzMgMCAwIDEgNDIuNjY2NjY2IDB2NDUuOTUyQTE4LjA0OCAxOC4wNDggMCAwIDAgNDIzLjM4MTMzMyAxMjhoMTc3LjIzNzMzNGExOC4wNDggMTguMDQ4IDAgMCAwIDE4LjA0OC0xOC4wNDhWNjRhMjEuMzMzMzMzIDIxLjMzMzMzMyAwIDAgMSA0Mi42NjY2NjYgMHY0NS45NTJBNjAuNzU3MzMzIDYwLjc1NzMzMyAwIDAgMSA2MDAuNjE4NjY3IDE3MC42NjY2Njd6TTU5Ny4zMzMzMzMgNjQwaC0xNzAuNjY2NjY2YTIxLjMzMzMzMyAyMS4zMzMzMzMgMCAwIDEtMjAuNjkzMzM0LTE2LjE3MDY2N0wzNjcuMzYgNDY5LjMzMzMzM0gzNDEuMzMzMzMzYTIxLjMzMzMzMyAyMS4zMzMzMzMgMCAwIDEgMC00Mi42NjY2NjZoNDIuNjY2NjY3YTIxLjMzMzMzMyAyMS4zMzMzMzMgMCAwIDEgMjAuNjkzMzMzIDE2LjE3MDY2Nkw0MTEuMzA2NjY3IDQ2OS4zMzMzMzNINjE4LjY2NjY2N2EyMS4zMzMzMzMgMjEuMzMzMzMzIDAgMCAxIDIxLjAzNDY2NiAyNC44MzJsLTIxLjMzMzMzMyAxMjhBMjEuMzMzMzMzIDIxLjMzMzMzMyAwIDAgMSA1OTcuMzMzMzMzIDY0MHogbS0xNTQuMDI2NjY2LTQyLjY2NjY2N2gxMzUuOTc4NjY2bDE0LjIwOC04NS4zMzMzMzNINDIxLjk3MzMzM3pNNDQ4IDczMS44NjEzMzNhMzIgMzIgMCAxIDEgMzItMzIgMzIgMzIgMCAwIDEtMzIgMzJ6IG0wLTQyLjY2NjY2NmExMC42NjY2NjcgMTAuNjY2NjY3IDAgMCAwLTEwLjY2NjY2NyAxMC42NjY2NjZjMCAxMS43MzMzMzMgMjEuMzMzMzMzIDExLjczMzMzMyAyMS4zMzMzMzQgMGExMC42NjY2NjcgMTAuNjY2NjY3IDAgMCAwLTEwLjY2NjY2Ny0xMC42NjY2NjZ6TTU3NiA3MzEuODYxMzMzYTMyIDMyIDAgMSAxIDMyLTMyIDMyIDMyIDAgMCAxLTMyIDMyeiBtMC00Mi42NjY2NjZhMTAuNjY2NjY3IDEwLjY2NjY2NyAwIDAgMC0xMC42NjY2NjcgMTAuNjY2NjY2YzAgMTEuNzMzMzMzIDIxLjMzMzMzMyAxMS43MzMzMzMgMjEuMzMzMzM0IDBhMTAuNjY2NjY3IDEwLjY2NjY2NyAwIDAgMC0xMC42NjY2NjctMTAuNjY2NjY2eiIvPjwvc3ZnPg==;" parent="1" vertex="1">
          <mxGeometry x="79" y="448" width="104" height="104" as="geometry" />
        </mxCell>
        <mxCell id="e-g8cxs9nV2_2HUq0UOM-1" value="" style="shape=image;verticalLabelPosition=bottom;verticalAlign=top;imageAspect=0;aspect=fixed;image=data:image/svg+xml,PHN2ZyB4bWxuczp4bGluaz0iaHR0cDovL3d3dy53My5vcmcvMTk5OS94bGluayIgeG1sbnM9Imh0dHA6Ly93d3cudzMub3JnLzIwMDAvc3ZnIiBoZWlnaHQ9IjIwMCIgd2lkdGg9IjIwMCIgdmVyc2lvbj0iMS4xIiB2aWV3Qm94PSIwIDAgMTAyNCAxMDI0IiBjbGFzcz0iaWNvbiI+PGRlZnM+PHN0eWxlIHR5cGU9InRleHQvY3NzIj5AZm9udC1mYWNlIHsgZm9udC1mYW1pbHk6IGZlZWRiYWNrLWljb25mb250OyBzcmM6IHVybCgiLy9hdC5hbGljZG4uY29tL3QvZm9udF8xMDMxMTU4X3U2OXc4eWh4ZHUud29mZjI/dD0xNjMwMDMzNzU5OTQ0IikgZm9ybWF0KCJ3b2ZmMiIpLCB1cmwoIi8vYXQuYWxpY2RuLmNvbS90L2ZvbnRfMTAzMTE1OF91Njl3OHloeGR1LndvZmY/dD0xNjMwMDMzNzU5OTQ0IikgZm9ybWF0KCJ3b2ZmIiksIHVybCgiLy9hdC5hbGljZG4uY29tL3QvZm9udF8xMDMxMTU4X3U2OXc4eWh4ZHUudHRmP3Q9MTYzMDAzMzc1OTk0NCIpIGZvcm1hdCgidHJ1ZXR5cGUiKTsgfSYjeGE7PC9zdHlsZT48L2RlZnM+PHBhdGggZmlsbD0iIzRBOTE5QiIgZD0iTTAgNzI4djEzNmMwIDM1LjMgMjguNyA2NCA2NCA2NGg4OTZjMzUuMyAwIDY0LTI4LjcgNjQtNjRWNzI4YzAtNC40LTMuNi04LTgtOEg4Yy00LjQgMC04IDMuNi04IDh6IG03NzQgOTZjMCA0LjQtMy42IDgtOCA4SDQyNGMtNC40IDAtOC0zLjYtOC04di00OGMwLTQuNCAzLjYtOCA4LThoMzQyYzQuNCAwIDggMy42IDggOHY0OHogbTEyMiAwYzAgNC40LTMuNiA4LTggOGgtNDhjLTQuNCAwLTgtMy42LTgtOHYtNDhjMC00LjQgMy42LTggOC04aDQ4YzQuNCAwIDggMy42IDggOHY0OHpNMCA1MzZ2MTQ0YzAgNC40IDMuNiA4IDggOGgxMDA4YzQuNCAwIDgtMy42IDgtOFY1MzZjMC00LjQtMy42LTgtOC04SDhjLTQuNCAwLTggMy42LTggOHogbTc3NCA5NmMwIDQuNC0zLjYgOC04IDhINDI0Yy00LjQgMC04LTMuNi04LTh2LTQ4YzAtNC40IDMuNi04IDgtOGgzNDJjNC40IDAgOCAzLjYgOCA4djQ4eiBtMTIyIDBjMCA0LjQtMy42IDgtOCA4aC00OGMtNC40IDAtOC0zLjYtOC04di00OGMwLTQuNCAzLjYtOCA4LThoNDhjNC40IDAgOCAzLjYgOCA4djQ4ek0wIDM0NHYxNDRjMCA0LjQgMy42IDggOCA4aDEwMDhjNC40IDAgOC0zLjYgOC04VjM0NGMwLTQuNC0zLjYtOC04LThIOGMtNC40IDAtOCAzLjYtOCA4eiBtNzc0IDk2YzAgNC40LTMuNiA4LTggOEg0MjRjLTQuNCAwLTgtMy42LTgtOHYtNDhjMC00LjQgMy42LTggOC04aDM0MmM0LjQgMCA4IDMuNiA4IDh2NDh6IG0xMjIgMGMwIDQuNC0zLjYgOC04IDhoLTQ4Yy00LjQgMC04LTMuNi04LTh2LTQ4YzAtNC40IDMuNi04IDgtOGg0OGM0LjQgMCA4IDMuNiA4IDh2NDh6TTk2MCA5Nkg2NGMtMzUuMyAwLTY0IDI4LjctNjQgNjR2MTM2YzAgNC40IDMuNiA4IDggOGgxMDA4YzQuNCAwIDgtMy42IDgtOFYxNjBjMC0zNS4zLTI4LjctNjQtNjQtNjR6TTc3NCAyNDhjMCA0LjQtMy42IDgtOCA4SDQyNGMtNC40IDAtOC0zLjYtOC04di00OGMwLTQuNCAzLjYtOCA4LThoMzQyYzQuNCAwIDggMy42IDggOHY0OHogbTEyMiAwYzAgNC40LTMuNiA4LTggOGgtNDhjLTQuNCAwLTgtMy42LTgtOHYtNDhjMC00LjQgMy42LTggOC04aDQ4YzQuNCAwIDggMy42IDggOHY0OHoiLz48L3N2Zz4=" parent="1" vertex="1">
          <mxGeometry x="534" y="462" width="77" height="77" as="geometry" />
        </mxCell>
        <mxCell id="e-g8cxs9nV2_2HUq0UOM-2" value="" style="shape=image;verticalLabelPosition=bottom;verticalAlign=top;imageAspect=0;aspect=fixed;image=data:image/svg+xml,PHN2ZyB4bWxuczp4bGluaz0iaHR0cDovL3d3dy53My5vcmcvMTk5OS94bGluayIgeG1sbnM9Imh0dHA6Ly93d3cudzMub3JnLzIwMDAvc3ZnIiBoZWlnaHQ9IjIwMCIgd2lkdGg9IjIwMCIgdmVyc2lvbj0iMS4xIiB2aWV3Qm94PSIwIDAgMTAyNCAxMDI0IiBjbGFzcz0iaWNvbiI+PGRlZnM+PHN0eWxlIHR5cGU9InRleHQvY3NzIj5AZm9udC1mYWNlIHsgZm9udC1mYW1pbHk6IGZlZWRiYWNrLWljb25mb250OyBzcmM6IHVybCgiLy9hdC5hbGljZG4uY29tL3QvZm9udF8xMDMxMTU4X3U2OXc4eWh4ZHUud29mZjI/dD0xNjMwMDMzNzU5OTQ0IikgZm9ybWF0KCJ3b2ZmMiIpLCB1cmwoIi8vYXQuYWxpY2RuLmNvbS90L2ZvbnRfMTAzMTE1OF91Njl3OHloeGR1LndvZmY/dD0xNjMwMDMzNzU5OTQ0IikgZm9ybWF0KCJ3b2ZmIiksIHVybCgiLy9hdC5hbGljZG4uY29tL3QvZm9udF8xMDMxMTU4X3U2OXc4eWh4ZHUudHRmP3Q9MTYzMDAzMzc1OTk0NCIpIGZvcm1hdCgidHJ1ZXR5cGUiKTsgfSYjeGE7PC9zdHlsZT48L2RlZnM+PHBhdGggZmlsbD0iIzRBOTE5QiIgZD0iTTAgNzI4djEzNmMwIDM1LjMgMjguNyA2NCA2NCA2NGg4OTZjMzUuMyAwIDY0LTI4LjcgNjQtNjRWNzI4YzAtNC40LTMuNi04LTgtOEg4Yy00LjQgMC04IDMuNi04IDh6IG03NzQgOTZjMCA0LjQtMy42IDgtOCA4SDQyNGMtNC40IDAtOC0zLjYtOC04di00OGMwLTQuNCAzLjYtOCA4LThoMzQyYzQuNCAwIDggMy42IDggOHY0OHogbTEyMiAwYzAgNC40LTMuNiA4LTggOGgtNDhjLTQuNCAwLTgtMy42LTgtOHYtNDhjMC00LjQgMy42LTggOC04aDQ4YzQuNCAwIDggMy42IDggOHY0OHpNMCA1MzZ2MTQ0YzAgNC40IDMuNiA4IDggOGgxMDA4YzQuNCAwIDgtMy42IDgtOFY1MzZjMC00LjQtMy42LTgtOC04SDhjLTQuNCAwLTggMy42LTggOHogbTc3NCA5NmMwIDQuNC0zLjYgOC04IDhINDI0Yy00LjQgMC04LTMuNi04LTh2LTQ4YzAtNC40IDMuNi04IDgtOGgzNDJjNC40IDAgOCAzLjYgOCA4djQ4eiBtMTIyIDBjMCA0LjQtMy42IDgtOCA4aC00OGMtNC40IDAtOC0zLjYtOC04di00OGMwLTQuNCAzLjYtOCA4LThoNDhjNC40IDAgOCAzLjYgOCA4djQ4ek0wIDM0NHYxNDRjMCA0LjQgMy42IDggOCA4aDEwMDhjNC40IDAgOC0zLjYgOC04VjM0NGMwLTQuNC0zLjYtOC04LThIOGMtNC40IDAtOCAzLjYtOCA4eiBtNzc0IDk2YzAgNC40LTMuNiA4LTggOEg0MjRjLTQuNCAwLTgtMy42LTgtOHYtNDhjMC00LjQgMy42LTggOC04aDM0MmM0LjQgMCA4IDMuNiA4IDh2NDh6IG0xMjIgMGMwIDQuNC0zLjYgOC04IDhoLTQ4Yy00LjQgMC04LTMuNi04LTh2LTQ4YzAtNC40IDMuNi04IDgtOGg0OGM0LjQgMCA4IDMuNiA4IDh2NDh6TTk2MCA5Nkg2NGMtMzUuMyAwLTY0IDI4LjctNjQgNjR2MTM2YzAgNC40IDMuNiA4IDggOGgxMDA4YzQuNCAwIDgtMy42IDgtOFYxNjBjMC0zNS4zLTI4LjctNjQtNjQtNjR6TTc3NCAyNDhjMCA0LjQtMy42IDgtOCA4SDQyNGMtNC40IDAtOC0zLjYtOC04di00OGMwLTQuNCAzLjYtOCA4LThoMzQyYzQuNCAwIDggMy42IDggOHY0OHogbTEyMiAwYzAgNC40LTMuNiA4LTggOGgtNDhjLTQuNCAwLTgtMy42LTgtOHYtNDhjMC00LjQgMy42LTggOC04aDQ4YzQuNCAwIDggMy42IDggOHY0OHoiLz48L3N2Zz4=" parent="1" vertex="1">
          <mxGeometry x="530" y="352" width="77" height="77" as="geometry" />
        </mxCell>
        <mxCell id="qjthPos1SxvgIYNzJ6Ap-1" value="" style="shape=image;verticalLabelPosition=bottom;labelBackgroundColor=default;verticalAlign=top;aspect=fixed;imageAspect=0;image=data:image/svg+xml,PHN2ZyB4bWxuczp4bGluaz0iaHR0cDovL3d3dy53My5vcmcvMTk5OS94bGluayIgeG1sbnM9Imh0dHA6Ly93d3cudzMub3JnLzIwMDAvc3ZnIiBoZWlnaHQ9IjIwMCIgd2lkdGg9IjIwMCIgdmVyc2lvbj0iMS4xIiB2aWV3Qm94PSIwIDAgMTAyNCAxMDI0IiBjbGFzcz0iaWNvbiI+PHBhdGggZmlsbD0iIzRBOTE5QiIgZD0iTTUxMiAwTDY4LjQ4IDI1NnY1MTJMNTEyIDEwMjRsNDQzLjUyLTI1NlYyNTZMNTEyIDB6IG0yNTYgNzA3Ljg0YzAgMzAuMDgtMjcuNTYyNjY3IDU1LjA0LTY1LjIzNzMzMyA1NS4wNC0yNi45MjI2NjcgMC01Ny42NDI2NjctMTAuODgtNzYuODQyNjY3LTM0LjU2bC0yNTYtMzA0LjY4MjY2N3YyODQuMTZjMCAzMC43NjI2NjctMjQuMzIgNTUuMDQtNTQuMzU3MzMzIDU1LjA0SDMxMi4zMmMtMzAuNzYyNjY3IDAtNTUuMDQtMjUuNi01NS4wNC01NS4wNFYzMTYuMTZjMC0zMC4wOCAyNi44OC01NS4wNCA2NC01NS4wNCAyNy41NjI2NjcgMCA1OC44OCAxMC44OCA3OC4wOCAzNC41NmwyNTQuNzIgMzA0LjY4MjY2N1YzMTYuMTZjMC0zMC43NjI2NjcgMjUuNi01NS4wNCA1NS4wNC01NS4wNGgzLjJjMzAuNzIgMCA1NS4wNCAyNS42IDU1LjA0IDU1LjA0djM5MS42OEg3Njh6Ii8+PC9zdmc+;" parent="1" vertex="1">
          <mxGeometry x="292" y="452" width="97" height="97" as="geometry" />
        </mxCell>
        <mxCell id="qjthPos1SxvgIYNzJ6Ap-2" value="" style="shape=flexArrow;endArrow=classic;startArrow=classic;html=1;rounded=0;fillColor=#FDD276;strokeColor=default;dashed=1;strokeWidth=2;opacity=60;" parent="1" edge="1">
          <mxGeometry width="100" height="100" relative="1" as="geometry">
            <mxPoint x="411" y="538" as="sourcePoint" />
            <mxPoint x="506" y="594" as="targetPoint" />
          </mxGeometry>
        </mxCell>
        <mxCell id="qjthPos1SxvgIYNzJ6Ap-3" value="" style="shape=flexArrow;endArrow=classic;startArrow=classic;html=1;rounded=0;fillColor=#FDD276;strokeColor=none;" parent="1" edge="1">
          <mxGeometry width="100" height="100" relative="1" as="geometry">
            <mxPoint x="409" y="460" as="sourcePoint" />
            <mxPoint x="504" y="404" as="targetPoint" />
          </mxGeometry>
        </mxCell>
        <mxCell id="qjthPos1SxvgIYNzJ6Ap-4" value="" style="shape=flexArrow;endArrow=classic;startArrow=classic;html=1;rounded=0;fillColor=#FDD276;strokeColor=none;" parent="1" edge="1">
          <mxGeometry width="100" height="100" relative="1" as="geometry">
            <mxPoint x="181" y="500" as="sourcePoint" />
            <mxPoint x="283" y="500" as="targetPoint" />
          </mxGeometry>
        </mxCell>
        <mxCell id="qjthPos1SxvgIYNzJ6Ap-5" value="&lt;font style=&quot;font-size: 18px;&quot; color=&quot;#4a919b&quot;&gt;TCP连接&lt;/font&gt;" style="text;html=1;strokeColor=none;fillColor=none;align=center;verticalAlign=middle;whiteSpace=wrap;rounded=0;" parent="1" vertex="1">
          <mxGeometry x="403" y="460" width="116.5" height="30" as="geometry" />
        </mxCell>
        <mxCell id="nOZgu70ZBCIt5XEXO7in-1" value="&lt;div style=&quot;font-size: 15px;&quot;&gt;&lt;span style=&quot;background-color: initial;&quot;&gt;&lt;font color=&quot;#4a919b&quot; style=&quot;font-size: 15px;&quot;&gt;&lt;b&gt;xiaobaidebug.top:&lt;/b&gt;&lt;/font&gt;&lt;/span&gt;&lt;/div&gt;&lt;div style=&quot;font-size: 15px;&quot;&gt;&lt;span style=&quot;background-color: initial;&quot;&gt;&lt;font color=&quot;#4a919b&quot; style=&quot;font-size: 15px;&quot;&gt;&lt;b&gt;10.127.5.1&lt;/b&gt;&lt;/font&gt;&lt;/span&gt;&lt;/div&gt;&lt;div style=&quot;font-size: 15px;&quot;&gt;&lt;span style=&quot;background-color: initial;&quot;&gt;&lt;font color=&quot;#4a919b&quot; style=&quot;font-size: 15px;&quot;&gt;&lt;b&gt;10.127.5.2&lt;/b&gt;&lt;/font&gt;&lt;/span&gt;&lt;/div&gt;&lt;div style=&quot;font-size: 15px;&quot;&gt;&lt;span style=&quot;background-color: initial;&quot;&gt;&lt;font color=&quot;#ea6b66&quot; style=&quot;font-size: 15px;&quot;&gt;&lt;b style=&quot;&quot;&gt;10.127.5.3&lt;/b&gt;&lt;/font&gt;&lt;/span&gt;&lt;/div&gt;&lt;font style=&quot;&quot;&gt;&lt;div style=&quot;&quot;&gt;&lt;/div&gt;	&lt;/font&gt;	" style="rounded=1;whiteSpace=wrap;html=1;align=center;fillColor=#E6D7C2;strokeColor=none;" parent="1" vertex="1">
          <mxGeometry x="263" y="569" width="155" height="87" as="geometry" />
        </mxCell>
        <mxCell id="nOZgu70ZBCIt5XEXO7in-2" value="&lt;div&gt;&lt;span style=&quot;background-color: initial;&quot;&gt;&lt;font color=&quot;#4a919b&quot;&gt;10.127.5.1&lt;/font&gt;&lt;/span&gt;&lt;/div&gt;" style="text;html=1;strokeColor=none;fillColor=none;align=center;verticalAlign=middle;whiteSpace=wrap;rounded=0;fontSize=15;" parent="1" vertex="1">
          <mxGeometry x="530" y="418" width="75.5" height="30" as="geometry" />
        </mxCell>
        <mxCell id="nOZgu70ZBCIt5XEXO7in-3" value="&lt;div&gt;&lt;span style=&quot;background-color: initial;&quot;&gt;&lt;font color=&quot;#4a919b&quot;&gt;10.127.5.2&lt;/font&gt;&lt;/span&gt;&lt;/div&gt;" style="text;html=1;strokeColor=none;fillColor=none;align=center;verticalAlign=middle;whiteSpace=wrap;rounded=0;fontSize=15;" parent="1" vertex="1">
          <mxGeometry x="534" y="529" width="75.5" height="30" as="geometry" />
        </mxCell>
        <mxCell id="nOZgu70ZBCIt5XEXO7in-4" value="&lt;div&gt;&lt;span style=&quot;background-color: initial;&quot;&gt;&lt;font color=&quot;#535e80&quot;&gt;10.127.5.3&lt;/font&gt;&lt;/span&gt;&lt;/div&gt;" style="text;html=1;strokeColor=none;fillColor=none;align=center;verticalAlign=middle;whiteSpace=wrap;rounded=0;fontSize=15;" parent="1" vertex="1">
          <mxGeometry x="531.5" y="638" width="75.5" height="30" as="geometry" />
        </mxCell>
        <mxCell id="nOZgu70ZBCIt5XEXO7in-5" value="" style="shape=image;verticalLabelPosition=bottom;verticalAlign=top;imageAspect=0;aspect=fixed;image=data:image/svg+xml,PHN2ZyB4bWxuczp4bGluaz0iaHR0cDovL3d3dy53My5vcmcvMTk5OS94bGluayIgeG1sbnM9Imh0dHA6Ly93d3cudzMub3JnLzIwMDAvc3ZnIiBoZWlnaHQ9IjIwMCIgd2lkdGg9IjIwMCIgdmVyc2lvbj0iMS4xIiB2aWV3Qm94PSIwIDAgMTAyNCAxMDI0IiBjbGFzcz0iaWNvbiI+PHBhdGggZmlsbD0iIzUzNUU4MCIgZD0iTTAgNzI4djEzNmMwIDM1LjMgMjguNyA2NCA2NCA2NGg4OTZjMzUuMyAwIDY0LTI4LjcgNjQtNjRWNzI4YzAtNC40LTMuNi04LTgtOEg4Yy00LjQgMC04IDMuNi04IDh6IG03NzQgOTZjMCA0LjQtMy42IDgtOCA4SDQyNGMtNC40IDAtOC0zLjYtOC04di00OGMwLTQuNCAzLjYtOCA4LThoMzQyYzQuNCAwIDggMy42IDggOHY0OHogbTEyMiAwYzAgNC40LTMuNiA4LTggOGgtNDhjLTQuNCAwLTgtMy42LTgtOHYtNDhjMC00LjQgMy42LTggOC04aDQ4YzQuNCAwIDggMy42IDggOHY0OHpNMCA1MzZ2MTQ0YzAgNC40IDMuNiA4IDggOGgxMDA4YzQuNCAwIDgtMy42IDgtOFY1MzZjMC00LjQtMy42LTgtOC04SDhjLTQuNCAwLTggMy42LTggOHogbTc3NCA5NmMwIDQuNC0zLjYgOC04IDhINDI0Yy00LjQgMC04LTMuNi04LTh2LTQ4YzAtNC40IDMuNi04IDgtOGgzNDJjNC40IDAgOCAzLjYgOCA4djQ4eiBtMTIyIDBjMCA0LjQtMy42IDgtOCA4aC00OGMtNC40IDAtOC0zLjYtOC04di00OGMwLTQuNCAzLjYtOCA4LThoNDhjNC40IDAgOCAzLjYgOCA4djQ4ek0wIDM0NHYxNDRjMCA0LjQgMy42IDggOCA4aDEwMDhjNC40IDAgOC0zLjYgOC04VjM0NGMwLTQuNC0zLjYtOC04LThIOGMtNC40IDAtOCAzLjYtOCA4eiBtNzc0IDk2YzAgNC40LTMuNiA4LTggOEg0MjRjLTQuNCAwLTgtMy42LTgtOHYtNDhjMC00LjQgMy42LTggOC04aDM0MmM0LjQgMCA4IDMuNiA4IDh2NDh6IG0xMjIgMGMwIDQuNC0zLjYgOC04IDhoLTQ4Yy00LjQgMC04LTMuNi04LTh2LTQ4YzAtNC40IDMuNi04IDgtOGg0OGM0LjQgMCA4IDMuNiA4IDh2NDh6TTk2MCA5Nkg2NGMtMzUuMyAwLTY0IDI4LjctNjQgNjR2MTM2YzAgNC40IDMuNiA4IDggOGgxMDA4YzQuNCAwIDgtMy42IDgtOFYxNjBjMC0zNS4zLTI4LjctNjQtNjQtNjR6TTc3NCAyNDhjMCA0LjQtMy42IDgtOCA4SDQyNGMtNC40IDAtOC0zLjYtOC04di00OGMwLTQuNCAzLjYtOCA4LThoMzQyYzQuNCAwIDggMy42IDggOHY0OHogbTEyMiAwYzAgNC40LTMuNiA4LTggOGgtNDhjLTQuNCAwLTgtMy42LTgtOHYtNDhjMC00LjQgMy42LTggOC04aDQ4YzQuNCAwIDggMy42IDggOHY0OHoiLz48L3N2Zz4=" parent="1" vertex="1">
          <mxGeometry x="531.5" y="567" width="78" height="78" as="geometry" />
        </mxCell>
        <mxCell id="nOZgu70ZBCIt5XEXO7in-6" value="" style="rounded=1;whiteSpace=wrap;html=1;fontSize=15;fontColor=#333333;fillColor=#f5f5f5;dashed=1;strokeWidth=2;strokeColor=#666666;opacity=50;" parent="1" vertex="1">
          <mxGeometry x="520" y="565" width="102" height="102" as="geometry" />
        </mxCell>
      </root>
    </mxGraphModel>
  </diagram>
</mxfile>
